<svg width="256" height="256" viewBox="0 0 256 256" fill="none" xmlns="http://www.w3.org/2000/svg">
<path d="M210.5 180.497L180.031 180.498C172.259 192.599 161.898 202.842 149.721 210.504H210.5V232.997L256 195.504L210.5 158.004V180.497Z" fill="white"/>
<path d="M98.5695 210.476C143.866 210.166 180.5 173.375 180.5 128.004C180.5 84.973 147.543 49.6755 105.5 45.8815V23.0035L60.5 60.5035L105.5 97.996V76.2615C130.875 79.94 150.5 101.626 150.5 128.004C150.5 156.949 126.945 180.504 98 180.504H0V210.504H98.6035C98.5885 210.495 98.584 210.485 98.5695 210.476V210.476Z" fill="white"/>
<path d="M61.3745 165.504C51.6085 155.964 45.5 142.7 45.5 128.004C45.5 110.572 54.1335 95.2055 67.252 85.652L43.6835 66.014C26.4415 81.135 15.5 103.269 15.5 128.004C15.5 141.556 18.98 154.224 24.7705 165.504H61.3745Z" fill="white"/>
</svg>
